<mxfile host="Electron" modified="2024-04-04T00:43:27.043Z" agent="Mozilla/5.0 (Windows NT 10.0; Win64; x64) AppleWebKit/537.36 (KHTML, like Gecko) draw.io/24.1.0 Chrome/120.0.6099.109 Electron/28.1.0 Safari/537.36" etag="NAFFhpBKn5QTcdB1DXF5" version="24.1.0" type="device">
  <diagram name="PÃ¡gina-1" id="JOg8vW9H21MWDvydsEq1">
    <mxGraphModel dx="2159" dy="631" grid="1" gridSize="10" guides="1" tooltips="1" connect="1" arrows="1" fold="1" page="1" pageScale="1" pageWidth="827" pageHeight="1169" math="0" shadow="0">
      <root>
        <mxCell id="0" />
        <mxCell id="1" parent="0" />
        <mxCell id="eND53PCbBlrj-OuI-nxX-19" style="edgeStyle=orthogonalEdgeStyle;rounded=0;orthogonalLoop=1;jettySize=auto;html=1;entryX=0;entryY=0.5;entryDx=0;entryDy=0;endArrow=none;endFill=0;exitX=1;exitY=0.5;exitDx=0;exitDy=0;" edge="1" parent="1" source="eND53PCbBlrj-OuI-nxX-46" target="eND53PCbBlrj-OuI-nxX-16">
          <mxGeometry relative="1" as="geometry" />
        </mxCell>
        <mxCell id="eND53PCbBlrj-OuI-nxX-37" style="edgeStyle=orthogonalEdgeStyle;rounded=0;orthogonalLoop=1;jettySize=auto;html=1;entryX=0;entryY=0.5;entryDx=0;entryDy=0;endArrow=none;endFill=0;" edge="1" parent="1" source="eND53PCbBlrj-OuI-nxX-65" target="eND53PCbBlrj-OuI-nxX-36">
          <mxGeometry relative="1" as="geometry" />
        </mxCell>
        <mxCell id="eND53PCbBlrj-OuI-nxX-2" value="&lt;font style=&quot;font-size: 18px;&quot;&gt;Pe&lt;span style=&quot;color: rgba(0, 0, 0, 0); font-family: monospace; font-size: 0px; text-align: start; text-wrap: nowrap;&quot;&gt;%3CmxGraphModel%3E%3Croot%3E%3CmxCell%20id%3D%220%22%2F%3E%3CmxCell%20id%3D%221%22%20parent%3D%220%22%2F%3E%3CmxCell%20id%3D%222%22%20value%3D%22%26lt%3Bspan%20style%3D%26quot%3Bfont-size%3A%2018px%3B%26quot%3B%26gt%3BContato%26lt%3B%2Fspan%26gt%3B%22%20style%3D%22whiteSpace%3Dwrap%3Bhtml%3D1%3Balign%3Dcenter%3B%22%20vertex%3D%221%22%20parent%3D%221%22%3E%3CmxGeometry%20x%3D%22190%22%20y%3D%22450%22%20width%3D%22110%22%20height%3D%2250%22%20as%3D%22geometry%22%2F%3E%3C%2FmxCell%3E%3C%2Froot%3E%3C%2FmxGraphModel%3E&lt;/span&gt;ssoa&lt;/font&gt;" style="whiteSpace=wrap;html=1;align=center;" vertex="1" parent="1">
          <mxGeometry x="290" y="230" width="191" height="70" as="geometry" />
        </mxCell>
        <mxCell id="eND53PCbBlrj-OuI-nxX-17" style="edgeStyle=orthogonalEdgeStyle;rounded=0;orthogonalLoop=1;jettySize=auto;html=1;entryX=0;entryY=0.5;entryDx=0;entryDy=0;endArrow=none;endFill=0;" edge="1" parent="1" source="eND53PCbBlrj-OuI-nxX-42" target="eND53PCbBlrj-OuI-nxX-12">
          <mxGeometry relative="1" as="geometry" />
        </mxCell>
        <mxCell id="eND53PCbBlrj-OuI-nxX-4" value="&lt;font style=&quot;font-size: 18px;&quot;&gt;Categoria Pessoa&lt;/font&gt;" style="whiteSpace=wrap;html=1;align=center;" vertex="1" parent="1">
          <mxGeometry x="-220" y="615" width="120" height="60" as="geometry" />
        </mxCell>
        <mxCell id="eND53PCbBlrj-OuI-nxX-5" value="&lt;span style=&quot;font-size: 18px;&quot;&gt;Contato&lt;/span&gt;" style="whiteSpace=wrap;html=1;align=center;" vertex="1" parent="1">
          <mxGeometry x="771" y="620" width="125" height="50" as="geometry" />
        </mxCell>
        <mxCell id="eND53PCbBlrj-OuI-nxX-28" style="edgeStyle=orthogonalEdgeStyle;rounded=0;orthogonalLoop=1;jettySize=auto;html=1;entryX=1;entryY=0.5;entryDx=0;entryDy=0;endArrow=none;endFill=0;" edge="1" parent="1" source="eND53PCbBlrj-OuI-nxX-51" target="eND53PCbBlrj-OuI-nxX-27">
          <mxGeometry relative="1" as="geometry" />
        </mxCell>
        <mxCell id="eND53PCbBlrj-OuI-nxX-6" value="&lt;span style=&quot;font-size: 18px;&quot;&gt;Endereco&lt;/span&gt;" style="whiteSpace=wrap;html=1;align=center;" vertex="1" parent="1">
          <mxGeometry x="771" y="795" width="125" height="50" as="geometry" />
        </mxCell>
        <mxCell id="eND53PCbBlrj-OuI-nxX-7" value="&lt;span style=&quot;font-size: 18px;&quot;&gt;Consulta&lt;/span&gt;" style="whiteSpace=wrap;html=1;align=center;" vertex="1" parent="1">
          <mxGeometry x="778.5" y="460" width="110" height="50" as="geometry" />
        </mxCell>
        <mxCell id="eND53PCbBlrj-OuI-nxX-31" style="edgeStyle=orthogonalEdgeStyle;rounded=0;orthogonalLoop=1;jettySize=auto;html=1;entryX=0;entryY=0.5;entryDx=0;entryDy=0;endArrow=none;endFill=0;" edge="1" parent="1" source="eND53PCbBlrj-OuI-nxX-63" target="eND53PCbBlrj-OuI-nxX-30">
          <mxGeometry relative="1" as="geometry" />
        </mxCell>
        <mxCell id="eND53PCbBlrj-OuI-nxX-8" value="&lt;span style=&quot;font-size: 18px;&quot;&gt;E-mail&lt;/span&gt;" style="whiteSpace=wrap;html=1;align=center;" vertex="1" parent="1">
          <mxGeometry x="-210" y="795" width="120" height="50" as="geometry" />
        </mxCell>
        <mxCell id="eND53PCbBlrj-OuI-nxX-21" style="edgeStyle=orthogonalEdgeStyle;rounded=0;orthogonalLoop=1;jettySize=auto;html=1;exitX=1;exitY=0.5;exitDx=0;exitDy=0;endArrow=none;endFill=0;" edge="1" parent="1" source="eND53PCbBlrj-OuI-nxX-44">
          <mxGeometry relative="1" as="geometry">
            <mxPoint x="290" y="530" as="targetPoint" />
          </mxGeometry>
        </mxCell>
        <mxCell id="eND53PCbBlrj-OuI-nxX-12" value="possui" style="shape=rhombus;perimeter=rhombusPerimeter;whiteSpace=wrap;html=1;align=center;" vertex="1" parent="1">
          <mxGeometry x="70" y="615" width="120" height="60" as="geometry" />
        </mxCell>
        <mxCell id="eND53PCbBlrj-OuI-nxX-20" style="edgeStyle=orthogonalEdgeStyle;rounded=0;orthogonalLoop=1;jettySize=auto;html=1;exitX=1;exitY=0.5;exitDx=0;exitDy=0;entryX=0;entryY=0.5;entryDx=0;entryDy=0;endArrow=none;endFill=0;" edge="1" parent="1" source="eND53PCbBlrj-OuI-nxX-48" target="eND53PCbBlrj-OuI-nxX-5">
          <mxGeometry relative="1" as="geometry" />
        </mxCell>
        <mxCell id="eND53PCbBlrj-OuI-nxX-16" value="possui" style="shape=rhombus;perimeter=rhombusPerimeter;whiteSpace=wrap;html=1;align=center;" vertex="1" parent="1">
          <mxGeometry x="571" y="615" width="120" height="60" as="geometry" />
        </mxCell>
        <mxCell id="eND53PCbBlrj-OuI-nxX-27" value="possui" style="shape=rhombus;perimeter=rhombusPerimeter;whiteSpace=wrap;html=1;align=center;" vertex="1" parent="1">
          <mxGeometry x="571" y="790" width="120" height="60" as="geometry" />
        </mxCell>
        <mxCell id="eND53PCbBlrj-OuI-nxX-30" value="possui" style="shape=rhombus;perimeter=rhombusPerimeter;whiteSpace=wrap;html=1;align=center;" vertex="1" parent="1">
          <mxGeometry x="80" y="790" width="120" height="60" as="geometry" />
        </mxCell>
        <mxCell id="eND53PCbBlrj-OuI-nxX-38" style="edgeStyle=orthogonalEdgeStyle;rounded=0;orthogonalLoop=1;jettySize=auto;html=1;endArrow=none;endFill=0;entryX=0;entryY=0.5;entryDx=0;entryDy=0;" edge="1" parent="1" source="eND53PCbBlrj-OuI-nxX-67" target="eND53PCbBlrj-OuI-nxX-7">
          <mxGeometry relative="1" as="geometry">
            <mxPoint x="740" y="380" as="targetPoint" />
          </mxGeometry>
        </mxCell>
        <mxCell id="eND53PCbBlrj-OuI-nxX-36" value="possui" style="shape=rhombus;perimeter=rhombusPerimeter;whiteSpace=wrap;html=1;align=center;" vertex="1" parent="1">
          <mxGeometry x="571" y="455" width="120" height="60" as="geometry" />
        </mxCell>
        <mxCell id="eND53PCbBlrj-OuI-nxX-43" value="" style="edgeStyle=orthogonalEdgeStyle;rounded=0;orthogonalLoop=1;jettySize=auto;html=1;entryX=0;entryY=0.5;entryDx=0;entryDy=0;endArrow=none;endFill=0;" edge="1" parent="1" source="eND53PCbBlrj-OuI-nxX-4" target="eND53PCbBlrj-OuI-nxX-42">
          <mxGeometry relative="1" as="geometry">
            <mxPoint x="61" y="645" as="sourcePoint" />
            <mxPoint x="171" y="645" as="targetPoint" />
          </mxGeometry>
        </mxCell>
        <mxCell id="eND53PCbBlrj-OuI-nxX-42" value="1" style="text;html=1;align=center;verticalAlign=middle;resizable=0;points=[];autosize=1;strokeColor=none;fillColor=none;fontSize=16;" vertex="1" parent="1">
          <mxGeometry x="-40" y="630" width="30" height="30" as="geometry" />
        </mxCell>
        <mxCell id="eND53PCbBlrj-OuI-nxX-45" value="" style="edgeStyle=orthogonalEdgeStyle;rounded=0;orthogonalLoop=1;jettySize=auto;html=1;exitX=1;exitY=0.5;exitDx=0;exitDy=0;endArrow=none;endFill=0;entryX=0;entryY=0.5;entryDx=0;entryDy=0;" edge="1" parent="1" source="eND53PCbBlrj-OuI-nxX-12" target="eND53PCbBlrj-OuI-nxX-44">
          <mxGeometry relative="1" as="geometry">
            <mxPoint x="291" y="645" as="sourcePoint" />
            <mxPoint x="381" y="645" as="targetPoint" />
          </mxGeometry>
        </mxCell>
        <mxCell id="eND53PCbBlrj-OuI-nxX-44" value="1" style="text;html=1;align=center;verticalAlign=middle;resizable=0;points=[];autosize=1;strokeColor=none;fillColor=none;fontSize=16;" vertex="1" parent="1">
          <mxGeometry x="220" y="630" width="30" height="30" as="geometry" />
        </mxCell>
        <mxCell id="eND53PCbBlrj-OuI-nxX-114" style="edgeStyle=orthogonalEdgeStyle;rounded=0;orthogonalLoop=1;jettySize=auto;html=1;endArrow=none;endFill=0;" edge="1" parent="1" source="eND53PCbBlrj-OuI-nxX-46">
          <mxGeometry relative="1" as="geometry">
            <mxPoint x="480" y="479.9999999999999" as="targetPoint" />
          </mxGeometry>
        </mxCell>
        <mxCell id="eND53PCbBlrj-OuI-nxX-46" value="1" style="text;html=1;align=center;verticalAlign=middle;resizable=0;points=[];autosize=1;strokeColor=none;fillColor=none;fontSize=16;" vertex="1" parent="1">
          <mxGeometry x="510" y="630" width="30" height="30" as="geometry" />
        </mxCell>
        <mxCell id="eND53PCbBlrj-OuI-nxX-50" value="" style="edgeStyle=orthogonalEdgeStyle;rounded=0;orthogonalLoop=1;jettySize=auto;html=1;exitX=1;exitY=0.5;exitDx=0;exitDy=0;entryX=0;entryY=0.5;entryDx=0;entryDy=0;endArrow=none;endFill=0;" edge="1" parent="1" source="eND53PCbBlrj-OuI-nxX-16" target="eND53PCbBlrj-OuI-nxX-48">
          <mxGeometry relative="1" as="geometry">
            <mxPoint x="691" y="645" as="sourcePoint" />
            <mxPoint x="771" y="645" as="targetPoint" />
          </mxGeometry>
        </mxCell>
        <mxCell id="eND53PCbBlrj-OuI-nxX-48" value="n" style="text;html=1;align=center;verticalAlign=middle;resizable=0;points=[];autosize=1;strokeColor=none;fillColor=none;fontSize=16;" vertex="1" parent="1">
          <mxGeometry x="720" y="630" width="30" height="30" as="geometry" />
        </mxCell>
        <mxCell id="eND53PCbBlrj-OuI-nxX-52" value="" style="edgeStyle=orthogonalEdgeStyle;rounded=0;orthogonalLoop=1;jettySize=auto;html=1;entryX=1;entryY=0.5;entryDx=0;entryDy=0;endArrow=none;endFill=0;" edge="1" parent="1" source="eND53PCbBlrj-OuI-nxX-6" target="eND53PCbBlrj-OuI-nxX-51">
          <mxGeometry relative="1" as="geometry">
            <mxPoint x="771" y="820" as="sourcePoint" />
            <mxPoint x="691" y="820" as="targetPoint" />
          </mxGeometry>
        </mxCell>
        <mxCell id="eND53PCbBlrj-OuI-nxX-51" value="n" style="text;html=1;align=center;verticalAlign=middle;resizable=0;points=[];autosize=1;strokeColor=none;fillColor=none;fontSize=16;" vertex="1" parent="1">
          <mxGeometry x="720" y="805" width="30" height="30" as="geometry" />
        </mxCell>
        <mxCell id="eND53PCbBlrj-OuI-nxX-59" value="" style="edgeStyle=orthogonalEdgeStyle;rounded=0;orthogonalLoop=1;jettySize=auto;html=1;endArrow=none;endFill=0;" edge="1" parent="1" source="eND53PCbBlrj-OuI-nxX-27" target="eND53PCbBlrj-OuI-nxX-53">
          <mxGeometry relative="1" as="geometry">
            <mxPoint x="571" y="820" as="sourcePoint" />
            <mxPoint x="453" y="670" as="targetPoint" />
          </mxGeometry>
        </mxCell>
        <mxCell id="eND53PCbBlrj-OuI-nxX-116" style="edgeStyle=orthogonalEdgeStyle;rounded=0;orthogonalLoop=1;jettySize=auto;html=1;entryX=1;entryY=1;entryDx=0;entryDy=0;endArrow=none;endFill=0;" edge="1" parent="1">
          <mxGeometry relative="1" as="geometry">
            <mxPoint x="509" y="820" as="sourcePoint" />
            <mxPoint x="480" y="300" as="targetPoint" />
          </mxGeometry>
        </mxCell>
        <mxCell id="eND53PCbBlrj-OuI-nxX-53" value="1" style="text;html=1;align=center;verticalAlign=middle;resizable=0;points=[];autosize=1;strokeColor=none;fillColor=none;fontSize=16;" vertex="1" parent="1">
          <mxGeometry x="510" y="805" width="30" height="30" as="geometry" />
        </mxCell>
        <mxCell id="eND53PCbBlrj-OuI-nxX-60" value="" style="edgeStyle=orthogonalEdgeStyle;rounded=0;orthogonalLoop=1;jettySize=auto;html=1;endArrow=none;endFill=0;" edge="1" parent="1" source="eND53PCbBlrj-OuI-nxX-27">
          <mxGeometry relative="1" as="geometry">
            <mxPoint x="580" y="820" as="sourcePoint" />
            <mxPoint x="560" y="820" as="targetPoint" />
          </mxGeometry>
        </mxCell>
        <mxCell id="eND53PCbBlrj-OuI-nxX-62" value="" style="edgeStyle=orthogonalEdgeStyle;rounded=0;orthogonalLoop=1;jettySize=auto;html=1;endArrow=none;endFill=0;" edge="1" parent="1" source="eND53PCbBlrj-OuI-nxX-30" target="eND53PCbBlrj-OuI-nxX-61">
          <mxGeometry relative="1" as="geometry">
            <mxPoint x="301" y="830" as="sourcePoint" />
            <mxPoint x="418" y="680" as="targetPoint" />
          </mxGeometry>
        </mxCell>
        <mxCell id="eND53PCbBlrj-OuI-nxX-119" style="edgeStyle=orthogonalEdgeStyle;rounded=0;orthogonalLoop=1;jettySize=auto;html=1;endArrow=none;endFill=0;entryX=0;entryY=1;entryDx=0;entryDy=0;" edge="1" parent="1" source="eND53PCbBlrj-OuI-nxX-61" target="eND53PCbBlrj-OuI-nxX-2">
          <mxGeometry relative="1" as="geometry">
            <mxPoint x="290" y="660" as="targetPoint" />
          </mxGeometry>
        </mxCell>
        <mxCell id="eND53PCbBlrj-OuI-nxX-61" value="1" style="text;html=1;align=center;verticalAlign=middle;resizable=0;points=[];autosize=1;strokeColor=none;fillColor=none;fontSize=16;" vertex="1" parent="1">
          <mxGeometry x="230" y="805" width="30" height="30" as="geometry" />
        </mxCell>
        <mxCell id="eND53PCbBlrj-OuI-nxX-64" value="" style="edgeStyle=orthogonalEdgeStyle;rounded=0;orthogonalLoop=1;jettySize=auto;html=1;entryX=0;entryY=0.5;entryDx=0;entryDy=0;endArrow=none;endFill=0;" edge="1" parent="1" source="eND53PCbBlrj-OuI-nxX-8" target="eND53PCbBlrj-OuI-nxX-63">
          <mxGeometry relative="1" as="geometry">
            <mxPoint x="71" y="830" as="sourcePoint" />
            <mxPoint x="181" y="830" as="targetPoint" />
          </mxGeometry>
        </mxCell>
        <mxCell id="eND53PCbBlrj-OuI-nxX-63" value="1" style="text;html=1;align=center;verticalAlign=middle;resizable=0;points=[];autosize=1;strokeColor=none;fillColor=none;fontSize=16;" vertex="1" parent="1">
          <mxGeometry x="-30" y="805" width="30" height="30" as="geometry" />
        </mxCell>
        <mxCell id="eND53PCbBlrj-OuI-nxX-68" value="" style="edgeStyle=orthogonalEdgeStyle;rounded=0;orthogonalLoop=1;jettySize=auto;html=1;entryX=-0.1;entryY=0.486;entryDx=0;entryDy=0;endArrow=none;endFill=0;entryPerimeter=0;" edge="1" parent="1" source="eND53PCbBlrj-OuI-nxX-36" target="eND53PCbBlrj-OuI-nxX-67">
          <mxGeometry relative="1" as="geometry">
            <mxPoint x="426" y="430" as="sourcePoint" />
            <mxPoint x="426" y="290" as="targetPoint" />
          </mxGeometry>
        </mxCell>
        <mxCell id="eND53PCbBlrj-OuI-nxX-67" value="n" style="text;html=1;align=center;verticalAlign=middle;resizable=0;points=[];autosize=1;strokeColor=none;fillColor=none;fontSize=16;" vertex="1" parent="1">
          <mxGeometry x="720" y="470" width="30" height="30" as="geometry" />
        </mxCell>
        <mxCell id="eND53PCbBlrj-OuI-nxX-70" value="&lt;span style=&quot;font-size: 18px;&quot;&gt;ProntuÃ¡rio&lt;/span&gt;" style="whiteSpace=wrap;html=1;align=center;" vertex="1" parent="1">
          <mxGeometry x="-210" y="460" width="110" height="50" as="geometry" />
        </mxCell>
        <mxCell id="eND53PCbBlrj-OuI-nxX-72" style="edgeStyle=orthogonalEdgeStyle;rounded=0;orthogonalLoop=1;jettySize=auto;html=1;endArrow=none;endFill=0;entryX=0;entryY=1;entryDx=0;entryDy=0;" edge="1" parent="1" source="eND53PCbBlrj-OuI-nxX-74" target="eND53PCbBlrj-OuI-nxX-2">
          <mxGeometry relative="1" as="geometry">
            <mxPoint x="310" y="600" as="targetPoint" />
            <Array as="points" />
          </mxGeometry>
        </mxCell>
        <mxCell id="eND53PCbBlrj-OuI-nxX-71" value="possui" style="shape=rhombus;perimeter=rhombusPerimeter;whiteSpace=wrap;html=1;align=center;" vertex="1" parent="1">
          <mxGeometry x="75" y="455" width="120" height="60" as="geometry" />
        </mxCell>
        <mxCell id="eND53PCbBlrj-OuI-nxX-75" value="" style="edgeStyle=orthogonalEdgeStyle;rounded=0;orthogonalLoop=1;jettySize=auto;html=1;endArrow=none;endFill=0;exitX=1;exitY=0.5;exitDx=0;exitDy=0;" edge="1" parent="1" source="eND53PCbBlrj-OuI-nxX-71" target="eND53PCbBlrj-OuI-nxX-74">
          <mxGeometry relative="1" as="geometry">
            <mxPoint x="365" y="195" as="sourcePoint" />
            <mxPoint x="440" y="195" as="targetPoint" />
          </mxGeometry>
        </mxCell>
        <mxCell id="eND53PCbBlrj-OuI-nxX-74" value="1" style="text;html=1;align=center;verticalAlign=middle;resizable=0;points=[];autosize=1;strokeColor=none;fillColor=none;fontSize=16;" vertex="1" parent="1">
          <mxGeometry x="225" y="470" width="30" height="30" as="geometry" />
        </mxCell>
        <mxCell id="eND53PCbBlrj-OuI-nxX-77" value="" style="edgeStyle=orthogonalEdgeStyle;rounded=0;orthogonalLoop=1;jettySize=auto;html=1;endArrow=none;endFill=0;exitX=0;exitY=0.5;exitDx=0;exitDy=0;" edge="1" parent="1" source="eND53PCbBlrj-OuI-nxX-71" target="eND53PCbBlrj-OuI-nxX-76">
          <mxGeometry relative="1" as="geometry">
            <mxPoint x="235" y="195" as="sourcePoint" />
            <mxPoint x="166" y="195" as="targetPoint" />
          </mxGeometry>
        </mxCell>
        <mxCell id="eND53PCbBlrj-OuI-nxX-118" style="edgeStyle=orthogonalEdgeStyle;rounded=0;orthogonalLoop=1;jettySize=auto;html=1;entryX=1;entryY=0.5;entryDx=0;entryDy=0;endArrow=none;endFill=0;" edge="1" parent="1" source="eND53PCbBlrj-OuI-nxX-76" target="eND53PCbBlrj-OuI-nxX-70">
          <mxGeometry relative="1" as="geometry" />
        </mxCell>
        <mxCell id="eND53PCbBlrj-OuI-nxX-76" value="n" style="text;html=1;align=center;verticalAlign=middle;resizable=0;points=[];autosize=1;strokeColor=none;fillColor=none;fontSize=16;" vertex="1" parent="1">
          <mxGeometry x="-35" y="470" width="30" height="30" as="geometry" />
        </mxCell>
        <mxCell id="eND53PCbBlrj-OuI-nxX-65" value="1" style="text;html=1;align=center;verticalAlign=middle;resizable=0;points=[];autosize=1;strokeColor=none;fillColor=none;fontSize=16;" vertex="1" parent="1">
          <mxGeometry x="510" y="470" width="30" height="30" as="geometry" />
        </mxCell>
        <mxCell id="eND53PCbBlrj-OuI-nxX-80" value="&lt;span style=&quot;font-size: 18px;&quot;&gt;Login&lt;/span&gt;" style="whiteSpace=wrap;html=1;align=center;" vertex="1" parent="1">
          <mxGeometry x="330" y="910" width="110" height="50" as="geometry" />
        </mxCell>
        <mxCell id="eND53PCbBlrj-OuI-nxX-83" style="edgeStyle=orthogonalEdgeStyle;rounded=0;orthogonalLoop=1;jettySize=auto;html=1;endArrow=none;endFill=0;" edge="1" parent="1" source="eND53PCbBlrj-OuI-nxX-87" target="eND53PCbBlrj-OuI-nxX-80">
          <mxGeometry relative="1" as="geometry" />
        </mxCell>
        <mxCell id="eND53PCbBlrj-OuI-nxX-84" style="edgeStyle=orthogonalEdgeStyle;rounded=0;orthogonalLoop=1;jettySize=auto;html=1;endArrow=none;endFill=0;" edge="1" parent="1" source="eND53PCbBlrj-OuI-nxX-85" target="eND53PCbBlrj-OuI-nxX-2">
          <mxGeometry relative="1" as="geometry">
            <mxPoint x="380" y="710" as="targetPoint" />
          </mxGeometry>
        </mxCell>
        <mxCell id="eND53PCbBlrj-OuI-nxX-82" value="possui" style="shape=rhombus;perimeter=rhombusPerimeter;whiteSpace=wrap;html=1;align=center;" vertex="1" parent="1">
          <mxGeometry x="325.5" y="610" width="120" height="60" as="geometry" />
        </mxCell>
        <mxCell id="eND53PCbBlrj-OuI-nxX-86" value="" style="edgeStyle=orthogonalEdgeStyle;rounded=0;orthogonalLoop=1;jettySize=auto;html=1;endArrow=none;endFill=0;" edge="1" parent="1" source="eND53PCbBlrj-OuI-nxX-82" target="eND53PCbBlrj-OuI-nxX-85">
          <mxGeometry relative="1" as="geometry">
            <mxPoint x="426" y="845" as="sourcePoint" />
            <mxPoint x="426" y="670" as="targetPoint" />
          </mxGeometry>
        </mxCell>
        <mxCell id="eND53PCbBlrj-OuI-nxX-85" value="1" style="text;html=1;align=center;verticalAlign=middle;resizable=0;points=[];autosize=1;strokeColor=none;fillColor=none;fontSize=16;" vertex="1" parent="1">
          <mxGeometry x="371" y="460" width="30" height="30" as="geometry" />
        </mxCell>
        <mxCell id="eND53PCbBlrj-OuI-nxX-88" value="" style="edgeStyle=orthogonalEdgeStyle;rounded=0;orthogonalLoop=1;jettySize=auto;html=1;endArrow=none;endFill=0;" edge="1" parent="1" source="eND53PCbBlrj-OuI-nxX-82" target="eND53PCbBlrj-OuI-nxX-87">
          <mxGeometry relative="1" as="geometry">
            <mxPoint x="426" y="905" as="sourcePoint" />
            <mxPoint x="426" y="1040" as="targetPoint" />
          </mxGeometry>
        </mxCell>
        <mxCell id="eND53PCbBlrj-OuI-nxX-87" value="1" style="text;html=1;align=center;verticalAlign=middle;resizable=0;points=[];autosize=1;strokeColor=none;fillColor=none;fontSize=16;" vertex="1" parent="1">
          <mxGeometry x="370" y="805" width="30" height="30" as="geometry" />
        </mxCell>
        <mxCell id="eND53PCbBlrj-OuI-nxX-121" style="edgeStyle=orthogonalEdgeStyle;rounded=0;orthogonalLoop=1;jettySize=auto;html=1;entryX=0;entryY=0;entryDx=0;entryDy=0;endArrow=none;endFill=0;" edge="1" parent="1" source="eND53PCbBlrj-OuI-nxX-89" target="eND53PCbBlrj-OuI-nxX-80">
          <mxGeometry relative="1" as="geometry">
            <Array as="points">
              <mxPoint x="230" y="910" />
              <mxPoint x="230" y="910" />
            </Array>
          </mxGeometry>
        </mxCell>
        <mxCell id="eND53PCbBlrj-OuI-nxX-89" value="&lt;font style=&quot;font-size: 18px;&quot;&gt;id&lt;/font&gt;" style="ellipse;whiteSpace=wrap;html=1;align=center;fontStyle=4;" vertex="1" parent="1">
          <mxGeometry x="165" y="895" width="30" height="30" as="geometry" />
        </mxCell>
        <mxCell id="eND53PCbBlrj-OuI-nxX-97" style="edgeStyle=orthogonalEdgeStyle;rounded=0;orthogonalLoop=1;jettySize=auto;html=1;entryX=0;entryY=0.75;entryDx=0;entryDy=0;exitX=1;exitY=0.5;exitDx=0;exitDy=0;endArrow=none;endFill=0;" edge="1" parent="1" source="eND53PCbBlrj-OuI-nxX-102" target="eND53PCbBlrj-OuI-nxX-80">
          <mxGeometry relative="1" as="geometry">
            <mxPoint x="277" y="1140" as="sourcePoint" />
          </mxGeometry>
        </mxCell>
        <mxCell id="eND53PCbBlrj-OuI-nxX-98" value="senha" style="ellipse;whiteSpace=wrap;html=1;align=center;" vertex="1" parent="1">
          <mxGeometry x="330" y="1060" width="49.5" height="30" as="geometry" />
        </mxCell>
        <mxCell id="eND53PCbBlrj-OuI-nxX-101" style="edgeStyle=orthogonalEdgeStyle;rounded=0;orthogonalLoop=1;jettySize=auto;html=1;entryX=0.75;entryY=1;entryDx=0;entryDy=0;endArrow=none;endFill=0;" edge="1" parent="1" source="eND53PCbBlrj-OuI-nxX-100" target="eND53PCbBlrj-OuI-nxX-80">
          <mxGeometry relative="1" as="geometry" />
        </mxCell>
        <mxCell id="eND53PCbBlrj-OuI-nxX-100" value="perfil" style="ellipse;whiteSpace=wrap;html=1;align=center;" vertex="1" parent="1">
          <mxGeometry x="393" y="1060" width="40" height="30" as="geometry" />
        </mxCell>
        <mxCell id="eND53PCbBlrj-OuI-nxX-102" value="&lt;font style=&quot;font-size: 18px;&quot;&gt;id_pessoa&lt;/font&gt;" style="ellipse;whiteSpace=wrap;html=1;align=center;fontStyle=4;" vertex="1" parent="1">
          <mxGeometry x="131.5" y="940" width="97" height="50" as="geometry" />
        </mxCell>
        <mxCell id="eND53PCbBlrj-OuI-nxX-112" value="" style="edgeStyle=orthogonalEdgeStyle;rounded=0;orthogonalLoop=1;jettySize=auto;html=1;endArrow=none;endFill=0;entryX=0.056;entryY=0.508;entryDx=0;entryDy=0;entryPerimeter=0;exitX=1;exitY=1;exitDx=0;exitDy=0;" edge="1" parent="1" source="eND53PCbBlrj-OuI-nxX-2" target="eND53PCbBlrj-OuI-nxX-65">
          <mxGeometry relative="1" as="geometry">
            <mxPoint x="401" y="484.79" as="sourcePoint" />
            <mxPoint x="451" y="484.79" as="targetPoint" />
            <Array as="points">
              <mxPoint x="480" y="300" />
              <mxPoint x="480" y="485" />
            </Array>
          </mxGeometry>
        </mxCell>
        <mxCell id="eND53PCbBlrj-OuI-nxX-117" style="edgeStyle=orthogonalEdgeStyle;rounded=0;orthogonalLoop=1;jettySize=auto;html=1;entryX=1;entryY=1;entryDx=0;entryDy=0;endArrow=none;endFill=0;" edge="1" parent="1">
          <mxGeometry relative="1" as="geometry">
            <mxPoint x="510" y="820" as="sourcePoint" />
            <mxPoint x="481" y="300" as="targetPoint" />
          </mxGeometry>
        </mxCell>
        <mxCell id="eND53PCbBlrj-OuI-nxX-122" style="edgeStyle=orthogonalEdgeStyle;rounded=0;orthogonalLoop=1;jettySize=auto;html=1;entryX=0.227;entryY=0.999;entryDx=0;entryDy=0;entryPerimeter=0;endArrow=none;endFill=0;" edge="1" parent="1" source="eND53PCbBlrj-OuI-nxX-98" target="eND53PCbBlrj-OuI-nxX-80">
          <mxGeometry relative="1" as="geometry" />
        </mxCell>
        <mxCell id="eND53PCbBlrj-OuI-nxX-125" style="edgeStyle=orthogonalEdgeStyle;rounded=0;orthogonalLoop=1;jettySize=auto;html=1;entryX=0;entryY=0;entryDx=0;entryDy=0;" edge="1" parent="1" source="eND53PCbBlrj-OuI-nxX-123" target="eND53PCbBlrj-OuI-nxX-2">
          <mxGeometry relative="1" as="geometry" />
        </mxCell>
        <mxCell id="eND53PCbBlrj-OuI-nxX-123" value="&lt;font style=&quot;font-size: 18px;&quot;&gt;id&lt;/font&gt;" style="ellipse;whiteSpace=wrap;html=1;align=center;fontStyle=4;" vertex="1" parent="1">
          <mxGeometry x="230" y="100" width="30" height="30" as="geometry" />
        </mxCell>
      </root>
    </mxGraphModel>
  </diagram>
</mxfile>
